<svg width="54" height="35" viewBox="0 0 54 35" fill="none" xmlns="http://www.w3.org/2000/svg">
<path fill-rule="evenodd" clip-rule="evenodd" d="M32.545 1.86608C31.0187 1.14726 29.352 0.775676 27.6648 0.778072V0.779461C25.738 0.780634 23.8426 1.26857 22.1547 2.19794C20.4668 3.12731 19.041 4.46801 18.0097 6.09562C16.9784 7.72324 16.3749 9.58499 16.2554 11.5081C16.1358 13.4313 16.504 15.3535 17.3258 17.0963C18.1476 18.8391 19.3963 20.3461 20.9561 21.4774C22.5159 22.6087 24.3362 23.3276 26.2481 23.5674C26.707 23.625 27.1676 23.6545 27.6274 23.6563C28.7111 23.761 30.1972 23.4903 31.6733 22.9336C31.7465 22.9062 31.8195 22.8781 31.8923 22.8492C31.9561 22.8239 32.0197 22.798 32.083 22.7715C33.4705 22.197 34.8151 21.3751 35.7707 20.3809C36.1886 19.9461 36.4791 19.5992 36.732 19.2972C37.3007 18.618 37.6792 18.166 38.8903 17.451C38.8928 17.445 38.8954 17.439 38.8979 17.4329C39.16 17.3 39.4304 17.186 39.7067 17.0934C41.0069 16.6579 42.4121 16.6474 43.7188 17.0633C45.0254 17.4792 46.1659 18.3 46.9753 19.4069C47.7846 20.5139 48.2208 21.8496 48.2208 23.2208C48.2208 24.5921 47.7846 25.9279 46.9753 27.0348C46.1659 28.1418 45.0254 28.9625 43.7188 29.3784C42.4121 29.7943 41.0069 29.7838 39.7067 29.3483C38.4064 28.9128 37.2784 28.075 36.4857 26.956L32.9382 30.5035C34.165 31.9894 35.7472 33.1412 37.5381 33.8522C39.329 34.5632 41.2705 34.8102 43.1824 34.5703C45.0943 34.3305 46.9146 33.6116 48.4744 32.4803C50.0342 31.349 51.2829 29.8421 52.1047 28.0992C52.9265 26.3564 53.2947 24.4342 53.1751 22.5111C53.0555 20.5879 52.4521 18.7262 51.4208 17.0986C50.3894 15.471 48.9637 14.1303 47.2757 13.2009C45.5878 12.2715 43.6925 11.7836 41.7657 11.7824V11.7811C40.0785 11.7787 38.4118 12.1502 36.8855 12.8691C35.6297 13.4604 34.4947 14.2747 33.5343 15.2699C33.3331 15.4579 33.1431 15.6512 32.9672 15.8491C31.5811 17.4087 29.917 18.3542 28.2977 18.6495C27.431 18.7338 26.5511 18.6426 25.7117 18.3755C24.405 17.9596 23.2645 17.1388 22.4552 16.0319C21.6458 14.9249 21.2096 13.5892 21.2096 12.2179C21.2096 10.8466 21.6458 9.51089 22.4552 8.40394C23.2645 7.29698 24.405 6.4762 25.7117 6.06031C27.0184 5.64441 28.4235 5.65495 29.7238 6.09044C31.0241 6.52594 32.1521 7.36378 32.9447 8.48277L36.4923 4.93526C35.4195 3.6331 34.0714 2.5849 32.545 1.86608ZM14.2893 12.3289C13.5722 12.1907 12.8431 12.1213 12.1122 12.1218L12.1067 12.1231C10.1798 12.1243 8.28449 12.6122 6.59659 13.5416C4.90868 14.471 3.48289 15.8117 2.45156 17.4393C1.42024 19.0669 0.816793 20.9287 0.697231 22.8518C0.577668 24.7749 0.94586 26.6971 1.76764 28.44C2.58943 30.1828 3.83816 31.6897 5.39796 32.821C6.95775 33.9523 8.77805 34.6712 10.6899 34.9111C12.6018 35.1509 14.5433 34.9039 16.3341 34.1929C18.125 33.4819 19.7073 32.3301 20.9341 30.8442L17.3866 27.2967C16.6539 28.3311 15.6331 29.1272 14.4514 29.5858C13.2696 30.0444 11.9791 30.1454 10.7404 29.876C9.50171 29.6067 8.36963 28.979 7.48503 28.071C6.60043 27.1631 6.00242 26.015 5.76543 24.7697C5.52843 23.5245 5.66289 22.237 6.15213 21.0676C6.64137 19.8982 7.46379 18.8985 8.51693 18.193C9.57007 17.4875 10.8075 17.1073 12.0751 17.0998C13.3427 17.0922 14.5845 17.4577 15.6459 18.1506C15.6076 18.0609 15.5704 17.9708 15.5342 17.8803C14.5841 16.1042 14.2982 13.9814 14.2893 12.3289Z" fill="#FF7A2F"/>
</svg>
